<svg width="32" height="32" xmlns="http://www.w3.org/2000/svg">
 <title/>
 <desc/>

 <g>
  <title>background</title>
  <rect fill="none" id="canvas_background" height="402" width="582" y="-1" x="-1"/>
 </g>
 <g>
  <title>Layer 1</title>
  <path stroke="#0a0000" id="Fill-1" fill="#0a0000" d="m16.233835,17.036735l-5.902,0l0,8.175l6.093,0c3.833,0 5.749,-1.382 5.749,-4.145c0,-1.413 -0.497,-2.438 -1.49,-3.075c-0.993,-0.637 -2.476,-0.955 -4.45,-0.955l0,0zm-5.902,-11.307l0,7.239l5.195,0c1.414,0 2.506,-0.134 3.276,-0.401c0.77,-0.268 1.359,-0.777 1.767,-1.528c0.318,-0.535 0.477,-1.134 0.477,-1.796c0,-1.413 -0.503,-2.352 -1.509,-2.817c-1.006,-0.465 -2.54,-0.697 -4.603,-0.697l-4.603,0zm6.322,23.741l-8.556,0c-1.236,0 -2.117,-0.277 -2.646,-0.831c-0.528,-0.554 -0.792,-1.436 -0.792,-2.645l0,-21.048c0,-1.235 0.27,-2.123 0.811,-2.664c0.542,-0.542 1.417,-0.812 2.627,-0.812l9.072,0c1.337,0 2.496,0.083 3.476,0.248c0.98,0.166 1.859,0.484 2.636,0.955c0.662,0.395 1.248,0.895 1.757,1.499c0.509,0.605 0.898,1.274 1.165,2.006c0.267,0.732 0.401,1.506 0.401,2.32c0,2.802 -1.401,4.852 -4.202,6.151c3.68,1.171 5.52,3.45 5.52,6.837c0,1.566 -0.401,2.977 -1.203,4.231c-0.803,1.254 -1.885,2.18 -3.247,2.779c-0.853,0.356 -1.834,0.608 -2.942,0.754c-1.107,0.147 -2.4,0.22 -3.877,0.22l0,0z"/>
  <path fill="#0a0000" stroke="#0a0000" id="Stroke-3" d="m16.233835,17.036735l-5.902,0l0,8.175l6.093,0c3.833,0 5.749,-1.382 5.749,-4.145c0,-1.413 -0.497,-2.438 -1.49,-3.075c-0.993,-0.637 -2.476,-0.955 -4.45,-0.955l0,0zm-5.902,-11.307l0,7.239l5.195,0c1.414,0 2.506,-0.134 3.276,-0.401c0.77,-0.268 1.359,-0.777 1.767,-1.528c0.318,-0.535 0.477,-1.134 0.477,-1.796c0,-1.413 -0.503,-2.352 -1.509,-2.817c-1.006,-0.465 -2.54,-0.697 -4.603,-0.697l-4.603,0l0,0zm6.322,23.741l-8.556,0c-1.236,0 -2.117,-0.277 -2.646,-0.831c-0.528,-0.554 -0.792,-1.436 -0.792,-2.645l0,-21.048c0,-1.235 0.27,-2.123 0.811,-2.664c0.542,-0.542 1.417,-0.812 2.627,-0.812l9.072,0c1.337,0 2.496,0.083 3.476,0.248c0.98,0.166 1.859,0.484 2.636,0.955c0.662,0.395 1.248,0.895 1.757,1.499c0.509,0.605 0.898,1.274 1.165,2.006c0.267,0.732 0.401,1.506 0.401,2.32c0,2.802 -1.401,4.852 -4.202,6.151c3.68,1.171 5.52,3.45 5.52,6.837c0,1.566 -0.401,2.977 -1.203,4.231c-0.803,1.254 -1.885,2.18 -3.247,2.779c-0.853,0.356 -1.834,0.608 -2.942,0.754c-1.107,0.147 -2.4,0.22 -3.877,0.22l0,0z"/>
  <path stroke="#0a0000" opacity="0.203766" id="Fill-5" fill="#0a0000" d="m27.388935,21.000835c-0.08,1.259 -0.434,2.421 -1.091,3.447c-0.744,1.164 -1.762,2.035 -3.026,2.591c-0.799,0.334 -1.746,0.576 -2.806,0.716c-1.081,0.143 -2.364,0.216 -3.812,0.216l-8.557,0c-1.087,0 -1.855,-0.228 -2.283,-0.676c-0.434,-0.455 -0.654,-1.23 -0.654,-2.301l0,1c0,1.071 0.22,1.846 0.654,2.301c0.428,0.448 1.196,0.676 2.283,0.676l8.557,0c1.448,0 2.731,-0.073 3.812,-0.216c1.06,-0.14 2.007,-0.382 2.806,-0.716c1.264,-0.556 2.282,-1.427 3.026,-2.591c0.747,-1.166 1.125,-2.499 1.125,-3.961c0,-0.169 -0.024,-0.323 -0.034,-0.486"/>
  <path fill="#0a0000" stroke-linejoin="round" stroke-linecap="round" stroke="#0a0000" id="Stroke-7" d="m10.373635,3.001735l8.673,0"/>
 </g>
</svg>